<?xml version="1.0"?>
<svg xmlns="http://www.w3.org/2000/svg" xmlns:xlink="http://www.w3.org/1999/xlink" xmlns:svgjs="http://svgjs.com/svgjs" version="1.1" width="512" height="512" x="0" y="0" viewBox="0 0 566.938 566.938" style="enable-background:new 0 0 512 512" xml:space="preserve" class=""><g>
<g xmlns="http://www.w3.org/2000/svg">
	<g>
		<path d="M490.438,424.808h67.32c5.07,0,9.18-4.109,9.18-9.18V151.306c0-5.07-4.109-9.181-9.18-9.181h-67.32    c-5.07,0-9.18,4.11-9.18,9.181v264.322C481.259,420.698,485.368,424.808,490.438,424.808z" fill="#deb9df" data-original="#000000" style="" class=""/>
		<path d="M4.25,293.727l212.012,212.013c5.667,5.664,10.257,3.764,10.257-4.251v-62.173c0-8.011,6.496-14.508,14.507-14.508H354.29    c5.07,0,9.18-4.109,9.18-9.18V151.306c0-5.07-4.109-9.181-9.18-9.181H241.027c-8.011,0-14.507-6.496-14.507-14.507v-62.17    c0-8.012-4.593-9.915-10.257-4.248L4.25,273.21C-1.417,278.877-1.417,288.06,4.25,293.727z" fill="#deb9df" data-original="#000000" style="" class=""/>
		<path d="M389.312,424.808h67.32c5.07,0,9.18-4.109,9.18-9.18V151.306c0-5.07-4.109-9.181-9.18-9.181h-67.32    c-5.07,0-9.18,4.11-9.18,9.181v264.322C380.132,420.698,384.241,424.808,389.312,424.808z" fill="#deb9df" data-original="#000000" style="" class=""/>
	</g>
</g>
<g xmlns="http://www.w3.org/2000/svg">
</g>
<g xmlns="http://www.w3.org/2000/svg">
</g>
<g xmlns="http://www.w3.org/2000/svg">
</g>
<g xmlns="http://www.w3.org/2000/svg">
</g>
<g xmlns="http://www.w3.org/2000/svg">
</g>
<g xmlns="http://www.w3.org/2000/svg">
</g>
<g xmlns="http://www.w3.org/2000/svg">
</g>
<g xmlns="http://www.w3.org/2000/svg">
</g>
<g xmlns="http://www.w3.org/2000/svg">
</g>
<g xmlns="http://www.w3.org/2000/svg">
</g>
<g xmlns="http://www.w3.org/2000/svg">
</g>
<g xmlns="http://www.w3.org/2000/svg">
</g>
<g xmlns="http://www.w3.org/2000/svg">
</g>
<g xmlns="http://www.w3.org/2000/svg">
</g>
<g xmlns="http://www.w3.org/2000/svg">
</g>
</g></svg>
